REM DIRINDEX 1\2\3,1\2\4,1\2\5,1\2\6
REM DIRNAME folder01,folder02,folder03,folder04,folder05,folder06
TITLE ""
FILE "064 064.mp3" MP3
  TRACK 01 AUDIO
    TITLE "0:"
    INDEX 01 00:00:00
  TRACK 02 AUDIO
    TITLE "3:cjc157_2371"
    INDEX 01 00:00:09
  TRACK 03 AUDIO
    TITLE "0:"
    INDEX 01 00:01:24
  TRACK 04 AUDIO
    TITLE "4:cjc157_2372"
    INDEX 01 00:01:71
  TRACK 05 AUDIO
    TITLE "0:"
    INDEX 01 00:02:73
  TRACK 06 AUDIO
    TITLE "5:cjc157_2373"
    INDEX 01 00:03:43
  TRACK 07 AUDIO
    TITLE "0:"
    INDEX 01 00:05:16
  TRACK 08 AUDIO
    TITLE "5:cjc157_2374"
    INDEX 01 00:05:56
  TRACK 09 AUDIO
    TITLE "0:"
    INDEX 01 00:07:31
  TRACK 10 AUDIO
    TITLE "3:cjc157_2375"
    INDEX 01 00:08:05
  TRACK 11 AUDIO
    TITLE "0:"
    INDEX 01 00:09:16
  TRACK 12 AUDIO
    TITLE "4:cjc157_2376"
    INDEX 01 00:09:61
  TRACK 13 AUDIO
    TITLE "0:"
    INDEX 01 00:11:05
  TRACK 14 AUDIO
    TITLE "5:cjc157_2377"
    INDEX 01 00:11:52
  TRACK 15 AUDIO
    TITLE "0:"
    INDEX 01 00:14:25
  TRACK 16 AUDIO
    TITLE "5:cjc157_2378"
    INDEX 01 00:14:70
  TRACK 17 AUDIO
    TITLE "0:"
    INDEX 01 00:16:48
  TRACK 18 AUDIO
    TITLE "3:cjc157_2379"
    INDEX 01 00:17:21
  TRACK 19 AUDIO
    TITLE "0:"
    INDEX 01 00:18:11
  TRACK 20 AUDIO
    TITLE "4:cjc157_2380"
    INDEX 01 00:18:58
  TRACK 21 AUDIO
    TITLE "0:"
    INDEX 01 00:19:69
  TRACK 22 AUDIO
    TITLE "5:cjc157_2381"
    INDEX 01 00:20:41
  TRACK 23 AUDIO
    TITLE "0:"
    INDEX 01 00:22:11
  TRACK 24 AUDIO
    TITLE "5:cjc157_2382"
    INDEX 01 00:22:56
  TRACK 25 AUDIO
    TITLE "0:"
    INDEX 01 00:24:16
  TRACK 26 AUDIO
    TITLE "5:cjc157_2383"
    INDEX 01 00:24:61
  TRACK 27 AUDIO
    TITLE "0:"
    INDEX 01 00:26:66
  TRACK 28 AUDIO
    TITLE "3:cjc157_2384"
    INDEX 01 00:27:38
  TRACK 29 AUDIO
    TITLE "0:"
    INDEX 01 00:28:53
  TRACK 30 AUDIO
    TITLE "4:cjc157_2385"
    INDEX 01 00:29:21
  TRACK 31 AUDIO
    TITLE "0:"
    INDEX 01 00:30:18
  TRACK 32 AUDIO
    TITLE "5:cjc157_2386"
    INDEX 01 00:30:71
  TRACK 33 AUDIO
    TITLE "0:"
    INDEX 01 00:32:29
  TRACK 34 AUDIO
    TITLE "5:cjc157_2387"
    INDEX 01 00:33:03
  TRACK 35 AUDIO
    TITLE "0:"
    INDEX 01 00:35:19
  TRACK 36 AUDIO
    TITLE "3:cjc157_2388"
    INDEX 01 00:35:68
  TRACK 37 AUDIO
    TITLE "0:"
    INDEX 01 00:37:07
  TRACK 38 AUDIO
    TITLE "4:cjc157_2389"
    INDEX 01 00:37:50
  TRACK 39 AUDIO
    TITLE "0:"
    INDEX 01 00:38:57
  TRACK 40 AUDIO
    TITLE "5:cjc157_2390"
    INDEX 01 00:39:31
  TRACK 41 AUDIO
    TITLE "0:"
    INDEX 01 00:41:38
  TRACK 42 AUDIO
    TITLE "5:cjc157_2391"
    INDEX 01 00:42:08
  TRACK 43 AUDIO
    TITLE "0:"
    INDEX 01 00:43:29
  TRACK 44 AUDIO
    TITLE "3:cjc157_2392"
    INDEX 01 00:43:72
  TRACK 45 AUDIO
    TITLE "0:"
    INDEX 01 00:45:10
  TRACK 46 AUDIO
    TITLE "4:cjc157_2393"
    INDEX 01 00:45:51
  TRACK 47 AUDIO
    TITLE "0:"
    INDEX 01 00:46:56
  TRACK 48 AUDIO
    TITLE "5:cjc157_2394"
    INDEX 01 00:47:23
  TRACK 49 AUDIO
    TITLE "0:"
    INDEX 01 00:49:02
  TRACK 50 AUDIO
    TITLE "5:cjc157_2395"
    INDEX 01 00:49:43
  TRACK 51 AUDIO
    TITLE "0:"
    INDEX 01 00:50:62
  TRACK 52 AUDIO
    TITLE "3:cjc157_2396"
    INDEX 01 00:51:30
  TRACK 53 AUDIO
    TITLE "0:"
    INDEX 01 00:52:37
  TRACK 54 AUDIO
    TITLE "4:cjc157_2397"
    INDEX 01 00:53:06
  TRACK 55 AUDIO
    TITLE "0:"
    INDEX 01 00:54:19
  TRACK 56 AUDIO
    TITLE "5:cjc157_2398"
    INDEX 01 00:54:64
  TRACK 57 AUDIO
    TITLE "0:"
    INDEX 01 00:57:13
  TRACK 58 AUDIO
    TITLE "3:cjc157_2399"
    INDEX 01 00:57:56
  TRACK 59 AUDIO
    TITLE "0:"
    INDEX 01 00:58:67
  TRACK 60 AUDIO
    TITLE "4:cjc157_2400"
    INDEX 01 00:59:38
  TRACK 61 AUDIO
    TITLE "0:"
    INDEX 01 01:00:43
  TRACK 62 AUDIO
    TITLE "5:cjc157_2401"
    INDEX 01 01:01:17
  TRACK 63 AUDIO
    TITLE "0:"
    INDEX 01 01:03:71
  TRACK 64 AUDIO
    TITLE "3:cjc157_2402"
    INDEX 01 01:04:41
  TRACK 65 AUDIO
    TITLE "0:"
    INDEX 01 01:05:62
  TRACK 66 AUDIO
    TITLE "4:cjc157_2403"
    INDEX 01 01:06:32
  TRACK 67 AUDIO
    TITLE "0:"
    INDEX 01 01:07:55
  TRACK 68 AUDIO
    TITLE "5:cjc157_2404"
    INDEX 01 01:08:25
  TRACK 69 AUDIO
    TITLE "0:"
    INDEX 01 01:10:35
  TRACK 70 AUDIO
    TITLE "5:cjc157_2405"
    INDEX 01 01:11:02
  TRACK 71 AUDIO
    TITLE "0:"
    INDEX 01 01:13:45
  TRACK 72 AUDIO
    TITLE "5:cjc157_2406"
    INDEX 01 01:14:19
  TRACK 73 AUDIO
    TITLE "0:"
    INDEX 01 01:16:07
  TRACK 74 AUDIO
    TITLE "5:cjc157_2407"
    INDEX 01 01:16:56
  TRACK 75 AUDIO
    TITLE "0:"
    INDEX 01 01:19:62
  TRACK 76 AUDIO
    TITLE "3:cjc157_2408"
    INDEX 01 01:20:32
  TRACK 77 AUDIO
    TITLE "0:"
    INDEX 01 01:21:37
  TRACK 78 AUDIO
    TITLE "4:cjc157_2409"
    INDEX 01 01:22:07
  TRACK 79 AUDIO
    TITLE "0:"
    INDEX 01 01:23:22
  TRACK 80 AUDIO
    TITLE "5:cjc157_2410"
    INDEX 01 01:23:65
  TRACK 81 AUDIO
    TITLE "0:"
    INDEX 01 01:26:29
  TRACK 82 AUDIO
    TITLE "5:cjc157_2411"
    INDEX 01 01:27:04
  TRACK 83 AUDIO
    TITLE "0:"
    INDEX 01 01:30:20
